HIERARCHY
ROOT root
{
	OFFSET 0.000000 0.000000 0.000000
	CHANNELS 6 Xposition Yposition Zposition Zrotation Yrotation Xrotation
	JOINT lhip
	{
		OFFSET 0.058581 -0.082280 -0.017664
		CHANNELS 3 Zrotation Yrotation Xrotation
		JOINT lknee
		{
			OFFSET 0.043451 -0.386469 0.008037
			CHANNELS 3 Zrotation Yrotation Xrotation
			JOINT lankle
			{
				OFFSET -0.014790 -0.426874 -0.037428
				CHANNELS 3 Zrotation Yrotation Xrotation
				JOINT ltoe
				{
					OFFSET 0.041054 -0.060286 0.122042
					CHANNELS 3 Zrotation Yrotation Xrotation
					End Site
					{
						OFFSET 0.000000 0.000000 0.000000
					}
				}
			}
		}
	}
	JOINT rhip
	{
		OFFSET -0.060310 -0.090513 -0.013543
		CHANNELS 3 Zrotation Yrotation Xrotation
		JOINT rknee
		{
			OFFSET -0.043257 -0.383688 -0.004843
			CHANNELS 3 Zrotation Yrotation Xrotation
			JOINT rankle
			{
				OFFSET 0.019056 -0.420046 -0.034562
				CHANNELS 3 Zrotation Yrotation Xrotation
				JOINT rtoe
				{
					OFFSET -0.034840 -0.062106 0.130323
					CHANNELS 3 Zrotation Yrotation Xrotation
					End Site
					{
						OFFSET 0.000000 0.000000 0.000000
					}
				}
			}
		}
	}
	JOINT lowerback
	{
		OFFSET 0.004439 0.124404 -0.038385
		CHANNELS 3 Zrotation Yrotation Xrotation
		JOINT upperback
		{
			OFFSET 0.004488 0.137956 0.026820
			CHANNELS 3 Zrotation Yrotation Xrotation
			JOINT chest
			{
				OFFSET -0.002265 0.056032 0.002855
				CHANNELS 3 Zrotation Yrotation Xrotation
				JOINT lowerneck
				{
					OFFSET -0.013390 0.211636 -0.033468
					CHANNELS 3 Zrotation Yrotation Xrotation
					JOINT upperneck
					{
						OFFSET 0.010113 0.088937 0.050410
						CHANNELS 3 Zrotation Yrotation Xrotation
						End Site
						{
							OFFSET 0.000000 0.000000 0.000000
						}
					}
				}
				JOINT lclavicle
				{
					OFFSET 0.071702 0.114000 -0.018898
					CHANNELS 3 Zrotation Yrotation Xrotation
					JOINT lshoulder
					{
						OFFSET 0.122921 0.045205 -0.019046
						CHANNELS 3 Zrotation Yrotation Xrotation
						JOINT lelbow
						{
							OFFSET 0.255332 -0.015649 -0.022946
							CHANNELS 3 Zrotation Yrotation Xrotation
							JOINT lwrist
							{
								OFFSET 0.265709 0.012698 -0.007375
								CHANNELS 3 Zrotation Yrotation Xrotation
								End Site
								{
									OFFSET 0.000000 0.000000 0.000000
								}
							}
						}
					}
				}
				JOINT rclavicle
				{
					OFFSET -0.082954 0.112472 -0.023707
					CHANNELS 3 Zrotation Yrotation Xrotation
					JOINT rshoulder
					{
						OFFSET -0.113228 0.046853 -0.008472
						CHANNELS 3 Zrotation Yrotation Xrotation
						JOINT relbow
						{
							OFFSET -0.260127 -0.014369 -0.031269
							CHANNELS 3 Zrotation Yrotation Xrotation
							JOINT rwrist
							{
								OFFSET -0.269108 0.006794 -0.006027
								CHANNELS 3 Zrotation Yrotation Xrotation
								End Site
								{
									OFFSET 0.000000 0.000000 0.000000
								}
							}
						}
					}
				}
			}
		}
	}
}
MOTION
Frames: 11
Frame Time: 0.033333
-0.025635 1.234014 1.017321 -151.557462 7.281630 105.899456 17.042236 3.526201 -22.448681 -6.565044 -4.921394 11.300919 1.989886 5.460231 -14.949654 0.000000 -0.000000 0.000000 -3.953160 -8.426268 -25.078532 8.935756 -3.503958 5.062974 18.271423 1.253052 8.736523 0.000000 -0.000000 0.000000 -0.113379 1.104251 9.818867 5.230504 6.982582 -15.048654 4.959834 2.667454 -2.670727 15.759729 -29.340434 -26.424902 1.958194 -32.449340 8.063884 -14.682015 20.729113 -3.098488 -50.451164 -24.912798 13.994000 129.425187 -43.171070 -127.596890 44.898999 14.499255 -56.964236 19.310875 -2.119890 -4.251895 6.620655 17.279197 -16.353408 -21.919203 16.086054 -56.680106 -31.217137 2.028335 -20.256423 
-0.038183 1.216738 1.016279 -153.149787 6.618563 107.281152 15.198493 3.651956 -24.302258 -6.821942 -4.025542 10.863774 2.706260 6.444853 -14.435639 0.000000 -0.000000 0.000000 -4.777066 -9.371250 -26.864530 8.484891 -3.547388 2.755351 18.960436 -0.251605 12.125016 0.000000 -0.000000 0.000000 1.084626 1.037700 11.680693 3.482752 7.450221 -16.534659 4.089380 3.058933 -2.571313 15.100456 -29.313082 -28.132838 3.151417 -31.279294 6.993419 -15.381688 20.507551 -4.197516 -44.662461 -23.506712 10.461802 125.196133 -43.950018 -125.035311 45.093102 13.035818 -56.202920 18.610219 -1.426892 -4.095477 5.361313 16.188609 -16.287076 -20.900219 15.864970 -57.523081 -31.925153 2.179599 -19.742097 
-0.048924 1.201074 1.013898 -155.464081 5.693841 109.070980 13.838490 3.366296 -26.226294 -7.565286 -2.087817 10.059093 3.258483 7.397340 -13.344899 0.000000 -0.000000 0.000000 -5.767963 -9.949562 -29.375573 8.318197 -4.591584 0.609820 19.822984 -1.991034 15.065763 0.000000 -0.000000 0.000000 0.970911 1.222476 12.193243 2.326187 7.923517 -17.357741 3.478505 3.456628 -2.190221 14.954340 -28.602071 -29.662746 3.912640 -30.542021 5.973969 -15.385946 21.026263 -4.288248 -40.314083 -22.815106 8.591331 121.095800 -43.269925 -124.353561 46.039233 13.165084 -55.460899 18.793735 -1.342290 -4.253945 3.173046 16.355428 -16.400861 -19.918703 15.452139 -58.776012 -32.319455 2.721365 -18.462729 
-0.059804 1.187147 1.011343 -157.987436 4.807572 110.175957 12.405186 3.597549 -27.521975 -8.360206 -0.210614 9.669227 3.174957 7.837504 -13.152786 0.000000 -0.000000 0.000000 -6.548322 -10.471298 -31.863799 7.712971 -5.421263 0.540670 21.167463 -2.903447 15.035908 0.000000 -0.000000 0.000000 0.993411 1.327770 13.457655 1.098577 8.323021 -18.480078 2.910445 3.788970 -1.787505 14.420471 -27.581450 -30.533162 4.350093 -29.885870 5.113729 -15.589373 21.124731 -4.831494 -35.564232 -21.441161 5.800160 115.921626 -43.676174 -121.566073 46.863726 11.529618 -54.440548 18.752855 -0.951207 -4.591938 1.285099 16.366317 -16.631036 -19.060492 15.608355 -58.744519 -32.769349 3.101596 -17.801658 
-0.069563 1.174864 1.007434 -160.623825 3.949192 111.037896 10.921489 3.967152 -28.750028 -9.170552 1.316468 9.694058 3.696501 8.741495 -13.186592 0.000000 -0.000000 0.000000 -7.389132 -10.262836 -34.686698 7.294784 -5.053498 2.823596 19.587199 -3.498311 10.688800 0.000000 -0.000000 0.000000 1.085967 1.004475 14.124891 0.223200 8.464300 -19.007080 2.156389 4.282865 -1.093717 13.602548 -26.361615 -30.954912 4.407064 -30.050589 4.933282 -15.319505 21.352900 -5.293048 -31.824305 -20.176107 3.061139 110.088541 -43.918829 -117.604502 48.276801 11.076036 -52.839063 18.638211 -0.294826 -4.554781 -0.143350 17.121361 -17.191248 -19.003289 15.810199 -58.149661 -33.017523 3.028590 -17.781463 
-0.079732 1.165154 1.003541 -163.041077 3.064527 111.291105 9.663347 4.056890 -29.250401 -10.187179 2.474340 9.692026 4.284030 10.095281 -13.306803 0.000000 -0.000000 0.000000 -8.308671 -9.779059 -36.947358 6.771343 -4.751930 7.142388 15.765409 -5.627547 5.600271 0.000000 -0.000000 0.000000 1.715759 0.388367 15.029098 -0.806708 8.574471 -19.222659 1.287333 4.491422 -0.494902 12.267078 -25.881858 -31.047267 4.502172 -29.096771 5.345567 -15.597881 21.046232 -6.394508 -27.955316 -18.425283 0.262191 103.383221 -44.088871 -113.582608 48.832769 10.151639 -52.061114 18.281449 0.768439 -4.963836 -1.262157 17.402065 -17.221759 -18.881210 16.866804 -58.097134 -32.946684 3.341902 -17.513858 
-0.089976 1.159143 1.000209 -164.968743 1.551937 110.713399 7.684794 3.185827 -28.529401 -10.696941 2.743011 9.318009 5.218102 12.049120 -13.383107 0.000000 -0.000000 0.000000 -9.609455 -10.605962 -38.460544 6.493430 -6.001938 13.700036 12.754776 -8.216528 0.490242 0.000000 -0.000000 0.000000 2.262248 -0.303543 16.132326 -1.833239 8.282228 -19.425775 0.220291 4.561216 0.406635 10.717053 -25.891274 -30.380909 4.835155 -28.208299 5.234849 -15.558555 20.154274 -6.550919 -25.147647 -16.989654 -1.082888 98.335928 -42.619735 -111.484214 50.744725 11.619960 -51.541675 17.884891 1.768786 -5.793590 -1.568489 17.591053 -16.323576 -19.518353 18.338232 -58.445150 -32.462789 3.332324 -16.887797 
-0.097076 1.155547 0.996790 -167.999426 0.204273 110.436050 6.034813 2.902411 -27.428281 -11.166463 4.135753 8.154200 6.110099 13.402786 -12.849448 0.000000 -0.000000 0.000000 -10.453864 -10.507339 -40.726443 5.765452 -7.887640 20.638834 8.759482 -12.530985 -2.798111 0.000000 -0.000000 0.000000 2.228437 -0.679389 16.331130 -3.065303 8.622617 -19.288580 -0.755220 4.600971 1.476662 9.113677 -25.620305 -29.855011 5.112449 -27.140688 5.592935 -15.665750 19.640122 -7.210193 -22.302901 -16.283243 -3.070022 92.736536 -42.322191 -109.035432 51.392408 11.475707 -50.869768 17.862386 2.081478 -6.234062 -1.527626 18.333308 -15.391171 -20.499640 20.582591 -59.187028 -32.410403 3.690394 -16.401993 
-0.105214 1.155073 0.994922 -170.504911 -1.577989 109.589363 3.742938 2.459232 -25.724910 -11.478181 4.743773 7.188340 6.793688 14.440171 -12.133846 0.000000 -0.000000 0.000000 -11.722900 -11.251031 -41.668257 5.435481 -8.761069 27.346058 7.208076 -13.600004 -4.284457 0.000000 -0.000000 0.000000 2.671462 -1.279434 16.683379 -4.243659 8.109827 -18.795985 -2.032329 4.480920 2.132742 6.901927 -24.841101 -28.606131 4.922029 -25.792190 6.110039 -16.309600 19.044776 -8.402237 -19.693916 -15.049399 -4.666009 87.661569 -42.147478 -107.052272 51.813523 10.450096 -50.250513 17.673278 2.953392 -6.401333 -1.229696 19.219586 -14.213588 -21.248575 22.737558 -58.841083 -32.138189 3.044780 -16.879693 
-0.110466 1.157259 0.993894 -173.455902 -3.381456 108.335915 1.571810 2.514180 -23.545391 -11.809254 5.142621 6.675849 6.788421 15.267605 -11.310886 0.000000 -0.000000 0.000000 -12.540131 -11.652591 -41.764034 5.667258 -7.508968 32.687827 7.485083 -12.071077 -4.445573 0.000000 -0.000000 0.000000 3.177949 -1.627604 17.154788 -5.686925 7.848039 -18.357797 -3.479300 4.593068 2.792614 3.814645 -24.103083 -26.843999 4.709997 -24.712400 6.939207 -16.195506 17.799713 -8.894406 -17.798872 -13.918806 -5.728073 83.317833 -41.237601 -105.624025 52.815643 9.032623 -48.991760 17.465991 3.916435 -6.540773 -1.266052 19.371020 -13.660539 -21.004837 25.143528 -58.482901 -32.272842 3.804278 -16.488166 
-0.113036 1.161366 0.993089 -176.511955 -5.043987 107.018709 -0.157784 2.514882 -21.704111 -11.963760 5.657342 7.185879 6.641348 15.813929 -10.789651 0.000000 -0.000000 0.000000 -12.807582 -11.574356 -41.298524 5.120354 -7.217970 34.717846 6.612354 -12.972463 -6.523517 0.000000 -0.000000 0.000000 3.384914 -2.020982 17.434169 -7.062809 7.644857 -18.228240 -4.457804 4.715966 3.719456 1.523539 -23.954130 -25.263778 4.123056 -23.282963 7.793771 -16.080700 17.190296 -8.922867 -16.992740 -13.418133 -6.374432 81.556148 -40.428383 -105.065166 52.096590 8.857022 -48.828356 16.949134 4.466706 -6.499433 -0.859833 20.194125 -12.840887 -20.934681 27.652368 -57.330089 -32.408004 3.768715 -16.524111 
